<svg width="85" height="85" viewBox="0 0 85 85" fill="none" xmlns="http://www.w3.org/2000/svg">
<circle cx="42.6438" cy="42.3424" r="40.691" fill="#BF4800" stroke="#BF4800" stroke-width="2.61797"/>
<path d="M37.3645 44.9849C38.4982 46.502 39.9446 47.7574 41.6056 48.6658C43.2666 49.5742 45.1033 50.1144 46.9912 50.2497C48.879 50.3851 50.7739 50.1124 52.5473 49.4502C54.3206 48.788 55.9309 47.7518 57.2691 46.4118L65.1886 38.4842C67.593 35.9922 68.9234 32.6546 68.8933 29.1903C68.8633 25.7259 67.4751 22.412 65.0279 19.9622C62.5806 17.5125 59.27 16.1229 55.8092 16.0928C52.3484 16.0627 49.0142 17.3945 46.5248 19.8013L41.9843 24.32" stroke="white" stroke-width="2.5" stroke-linecap="round" stroke-linejoin="round"/>
<path d="M47.9231 39.7C46.7894 38.1828 45.343 36.9275 43.6821 36.0191C42.0211 35.1107 40.1844 34.5705 38.2965 34.4351C36.4086 34.2998 34.5137 34.5724 32.7404 35.2346C30.967 35.8968 29.3567 36.933 28.0186 38.273L20.099 46.2007C17.6946 48.6926 16.3642 52.0302 16.3943 55.4946C16.4244 58.9589 17.8125 62.2729 20.2598 64.7226C22.707 67.1724 26.0176 68.562 29.4784 68.5921C32.9392 68.6222 36.2734 67.2904 38.7628 64.8836L43.277 60.3648" stroke="white" stroke-width="2.5" stroke-linecap="round" stroke-linejoin="round"/>
</svg>
