<svg width="85" height="85" viewBox="0 0 85 85" fill="none" xmlns="http://www.w3.org/2000/svg">
<circle cx="42.4932" cy="42.0105" r="40.7616" fill="#BF4800" stroke="#BF4800" stroke-width="2.47688"/>
<path d="M62.4881 37.2116C62.4881 54.0079 42.4931 68.4046 42.4931 68.4046C42.4931 68.4046 22.498 54.0079 22.498 37.2116C22.498 31.4842 24.6047 25.9914 28.3545 21.9415C32.1043 17.8917 37.1901 15.6165 42.4931 15.6165C47.7961 15.6165 52.8819 17.8917 56.6317 21.9415C60.3815 25.9914 62.4881 31.4842 62.4881 37.2116Z" stroke="white" stroke-width="2.5" stroke-linecap="round" stroke-linejoin="round"/>
<path d="M42.4933 46.1768C46.9218 46.1768 50.5117 42.5839 50.5117 38.1518C50.5117 33.7197 46.9218 30.1268 42.4933 30.1268C38.0648 30.1268 34.4749 33.7197 34.4749 38.1518C34.4749 42.5839 38.0648 46.1768 42.4933 46.1768Z" stroke="white" stroke-width="2.5" stroke-linecap="round" stroke-linejoin="round"/>
</svg>
