<svg width="121" height="43" viewBox="0 0 121 43" fill="none" xmlns="http://www.w3.org/2000/svg">
<path d="M60.4222 13.3554L66.1286 13.0066C66.253 13.91 66.5048 14.5978 66.8839 15.07C67.5033 15.8353 68.386 16.218 69.532 16.218C70.3872 16.218 71.0471 16.0228 71.5116 15.6324C71.7243 15.4703 71.8971 15.2639 72.0173 15.0283C72.1375 14.7927 72.202 14.5339 72.2062 14.2708C72.2027 14.0187 72.1425 13.7703 72.0301 13.5431C71.9176 13.316 71.7554 13.1155 71.555 12.9558C71.1209 12.5696 70.0971 12.2039 68.4837 11.8586C65.8529 11.2835 63.9768 10.5182 62.8554 9.5626C62.3096 9.11737 61.8739 8.55814 61.5804 7.92643C61.2869 7.29471 61.1433 6.60673 61.1601 5.91355C61.1643 4.93397 61.4664 3.97756 62.0284 3.16514C62.6702 2.24947 63.5767 1.54013 64.6331 1.12708C65.7907 0.632367 67.3825 0.38501 69.4083 0.38501C71.8886 0.38501 73.7798 0.834622 75.0822 1.73385C76.3845 2.63307 77.1594 4.06225 77.4069 6.02137L71.7525 6.34273C71.6078 5.49706 71.2924 4.87831 70.8062 4.48649C70.32 4.09466 69.6543 3.89946 68.8092 3.90087C68.1125 3.90087 67.5872 4.04674 67.2356 4.33427C67.0695 4.45867 66.9352 4.61885 66.8433 4.80225C66.7515 4.98565 66.7044 5.18728 66.706 5.39135C66.7112 5.54971 66.753 5.70489 66.8281 5.84541C66.9033 5.98594 67.0099 6.10821 67.1401 6.20319C67.4222 6.45266 68.0929 6.68522 69.1522 6.90087C71.7742 7.45055 73.6554 8.00728 74.7957 8.57106C75.9359 9.13483 76.7608 9.83321 77.2701 10.6662C77.79 11.5112 78.0582 12.4804 78.045 13.4653C78.0513 14.658 77.6923 15.8254 77.014 16.8184C76.308 17.8537 75.3037 18.6628 74.1271 19.144C72.8899 19.6725 71.3314 19.9368 69.4517 19.9368C66.151 19.9368 63.8647 19.3181 62.5927 18.0806C61.3208 16.8431 60.5972 15.268 60.4222 13.3554V13.3554ZM2.01427 19.6197V0.704249H12.0119C13.8656 0.704249 15.2822 0.858583 16.2619 1.16725C17.2269 1.46746 18.0612 2.07319 18.6322 2.88818C19.2536 3.79278 19.57 4.86362 19.5373 5.95161C19.5625 6.90104 19.3224 7.83931 18.8427 8.66619C18.3824 9.43273 17.7306 10.0735 16.9478 10.5288C16.2897 10.8823 15.5795 11.1348 14.8423 11.2772C15.3939 11.4354 15.9195 11.6696 16.403 11.9727C16.7623 12.2637 17.0857 12.5943 17.3667 12.9579C17.6828 13.3194 17.9627 13.7094 18.2024 14.1229L21.1066 19.6197H14.3279L11.1242 13.8332C10.7175 13.0848 10.3558 12.5985 10.0389 12.3744C9.60703 12.0829 9.09257 11.93 8.56722 11.9368H8.03326V19.6197H2.01427ZM8.03326 8.36387H10.5685C11.105 8.32485 11.6368 8.23852 12.1573 8.10594C12.5463 8.03325 12.8932 7.8213 13.1298 7.51186C13.3799 7.19928 13.5131 6.81298 13.5074 6.41672C13.5238 6.15365 13.4785 5.8904 13.3751 5.64685C13.2717 5.4033 13.1128 5.18581 12.9105 5.0108C12.514 4.68381 11.7681 4.52032 10.6727 4.52032H8.03326V8.36387ZM0.65332 35.8057L6.35975 35.459C6.4842 36.3625 6.73598 37.0503 7.11511 37.5224C7.72721 38.2878 8.61208 38.6704 9.76972 38.6704C10.6249 38.6704 11.2848 38.4745 11.7493 38.0827C11.962 37.9206 12.1348 37.7142 12.255 37.4786C12.3752 37.243 12.4397 36.9842 12.4439 36.7212C12.44 36.469 12.3798 36.2208 12.2673 35.9936C12.1549 35.7665 11.9929 35.566 11.7927 35.4062C11.3586 35.02 10.3348 34.6549 8.72133 34.311C6.0906 33.7331 4.2145 32.9678 3.09304 32.015C2.54739 31.5693 2.1117 31.0097 1.81825 30.3776C1.5248 29.7456 1.38111 29.0573 1.39783 28.3639C1.40263 27.3844 1.70471 26.4281 2.26605 25.6155C2.90784 24.6998 3.81441 23.9904 4.87074 23.5774C6.02838 23.0827 7.62013 22.8353 9.64599 22.8353C12.1262 22.8353 14.0175 23.2849 15.3199 24.1842C16.6222 25.0834 17.3971 26.5126 17.6445 28.4717L12.0011 28.7952C11.8564 27.9495 11.5409 27.33 11.0547 26.9368C10.5685 26.5436 9.90357 26.3505 9.05994 26.3575C8.36391 26.3575 7.83936 26.4985 7.48628 26.7804C7.32019 26.9048 7.18593 27.0649 7.09405 27.2483C7.00216 27.4317 6.95513 27.6334 6.95666 27.8374C6.9616 27.9962 7.0032 28.1518 7.07835 28.2927C7.15351 28.4336 7.26029 28.5562 7.39077 28.6514C7.67295 28.9009 8.34365 29.1327 9.40289 29.347C12.0249 29.8966 13.9061 30.4534 15.0464 31.0171C16.1866 31.5809 17.0115 32.2793 17.5208 33.1123C18.0403 33.9574 18.3086 34.9265 18.2957 35.9114C18.3022 37.1041 17.9432 38.2716 17.2647 39.2645C16.5587 40.2998 15.5544 41.1089 14.3778 41.5901C13.1406 42.1186 11.5821 42.3829 9.70243 42.3829C6.40171 42.3829 4.11538 41.7642 2.84343 40.5267C1.57147 39.2892 0.841436 37.7155 0.65332 35.8057ZM36.0336 34.3237L41.2907 35.8713C41 37.1703 40.4312 38.395 39.6216 39.4653C38.8838 40.4111 37.9134 41.1608 36.7998 41.6451C35.674 42.1341 34.2415 42.3787 32.5021 42.3787C30.3923 42.3787 28.6689 42.0806 27.3318 41.4844C25.9947 40.8882 24.8371 39.8374 23.8589 38.3322C22.8865 36.8283 22.401 34.9037 22.4024 32.5584C22.4024 29.4322 23.2562 27.0284 24.9637 25.347C26.6712 23.6655 29.0878 22.8255 32.2134 22.8269C34.6604 22.8269 36.5828 23.3089 37.9806 24.273C39.3785 25.237 40.4175 26.7169 41.0976 28.7127L35.8014 29.8607C35.677 29.4108 35.4807 28.9827 35.2197 28.5922C34.8989 28.1584 34.4771 27.8048 33.9889 27.5605C33.483 27.3149 32.9241 27.191 32.3588 27.199C31.0001 27.199 29.9589 27.7317 29.2354 28.7973C28.6855 29.588 28.4113 30.829 28.4127 32.5203C28.4127 34.6148 28.7398 36.051 29.3938 36.829C30.0479 37.607 30.9661 37.9953 32.1483 37.9939C33.2944 37.9939 34.1626 37.6803 34.753 37.0531C35.3434 36.4259 35.7703 35.5161 36.0336 34.3237V34.3237ZM45.9119 23.1546H51.9092V29.7677H58.4643V23.1546H64.4876V42.0615H58.4643V34.4188H51.9092V42.0679H45.9119V23.1546ZM68.221 32.6197C68.221 29.5358 69.1037 27.1327 70.8691 25.4104C72.6345 23.688 75.0945 22.8283 78.249 22.8311C81.4789 22.8311 83.9678 23.6768 85.7158 25.3681C87.4638 27.0594 88.34 29.4252 88.3444 32.4653C88.3444 34.6768 87.9624 36.4893 87.1983 37.903C86.4548 39.298 85.3027 40.4467 83.8882 41.2032C82.4411 41.9897 80.6425 42.3829 78.4922 42.3829C76.3042 42.3829 74.4954 42.0432 73.0657 41.3639C71.5969 40.6549 70.3814 39.5314 69.5776 38.1398C68.6718 36.6711 68.2196 34.8311 68.221 32.6197V32.6197ZM74.2183 32.6472C74.2183 34.557 74.5801 35.9284 75.3036 36.7613C76.0271 37.5943 77.0183 38.0108 78.2773 38.0108C79.5666 38.0108 80.5643 37.6028 81.2705 36.7867C81.9766 35.9706 82.3297 34.5048 82.3297 32.3892C82.3297 30.6091 81.9607 29.3082 81.2227 28.4865C80.4847 27.6648 79.4848 27.2546 78.223 27.256C77.6744 27.2368 77.1284 27.3387 76.6258 27.5539C76.1233 27.7692 75.6772 28.0923 75.321 28.4992C74.5873 29.3448 74.2198 30.7275 74.2183 32.6472V32.6472Z" fill="black"/>
<path d="M85.8003 32.6199C85.8003 29.536 86.683 27.1329 88.4484 25.4106C90.2138 23.6882 92.6738 22.8285 95.8283 22.8313C99.061 22.8313 101.551 23.677 103.297 25.3683C105.044 27.0596 105.917 29.4261 105.917 32.4677C105.917 34.6791 105.536 36.4916 104.773 37.9053C104.029 39.2999 102.877 40.4484 101.463 41.2055C100.016 41.992 98.2174 42.3852 96.0671 42.3852C93.8777 42.3852 92.0689 42.0455 90.6407 41.3662C89.1717 40.6567 87.9556 39.5333 87.1504 38.1421C86.2503 36.672 85.8003 34.8313 85.8003 32.6199V32.6199ZM91.7998 32.6474C91.7998 34.5572 92.1615 35.9286 92.885 36.7615C93.6086 37.5945 94.6012 38.0117 95.8631 38.0131C97.1524 38.0131 98.1501 37.6051 98.8563 36.789C99.5624 35.973 99.9155 34.5071 99.9155 32.3916C99.9155 30.6114 99.5472 29.3105 98.8107 28.4888C98.0741 27.6671 97.0742 27.257 95.811 27.2584C95.2614 27.2378 94.7142 27.3387 94.2104 27.5537C93.7067 27.7686 93.2595 28.0919 92.9024 28.4994C92.1659 29.345 91.7983 30.7277 91.7998 32.6474V32.6474Z" fill="black"/>
<path d="M105.292 23.1545H111.292V37.4061H120.653V42.0573H105.292V23.1545Z" fill="black"/>
</svg>
