<svg width="121" height="43" viewBox="0 0 121 43" fill="none" xmlns="http://www.w3.org/2000/svg">
<path d="M60.4641 13.6144L66.1706 13.2656C66.295 14.1691 66.5468 14.8569 66.9259 15.329C67.5453 16.0944 68.428 16.477 69.574 16.477C70.4292 16.477 71.0891 16.2818 71.5536 15.8914C71.7663 15.7293 71.9391 15.5229 72.0593 15.2873C72.1795 15.0517 72.244 14.7929 72.2482 14.5299C72.2446 14.2777 72.1845 14.0293 72.072 13.8022C71.9596 13.575 71.7974 13.3746 71.597 13.2149C71.1629 12.8287 70.1391 12.4629 68.5256 12.1176C65.8949 11.5426 64.0188 10.7772 62.8974 9.82163C62.3516 9.3764 61.9159 8.81718 61.6224 8.18546C61.3289 7.55375 61.1853 6.86577 61.2021 6.17258C61.2063 5.193 61.5084 4.23659 62.0704 3.42417C62.7122 2.50851 63.6187 1.79916 64.6751 1.38611C65.8327 0.8914 67.4244 0.644043 69.4503 0.644043C71.9305 0.644043 73.8218 1.09366 75.1242 1.99288C76.4265 2.89211 77.2014 4.32128 77.4489 6.28041L71.7945 6.60176C71.6498 5.75609 71.3344 5.13735 70.8482 4.74552C70.362 4.3537 69.6963 4.15849 68.8512 4.1599C68.1545 4.1599 67.6292 4.30578 67.2776 4.5933C67.1115 4.7177 66.9772 4.87788 66.8853 5.06128C66.7934 5.24468 66.7464 5.44632 66.7479 5.65039C66.7532 5.80874 66.795 5.96392 66.8701 6.10445C66.9453 6.24497 67.0519 6.36724 67.1821 6.46223C67.4642 6.7117 68.1349 6.94425 69.1942 7.1599C71.8162 7.70958 73.6974 8.26631 74.8377 8.83009C75.9779 9.39387 76.8028 10.0922 77.3121 10.9252C77.8319 11.7702 78.1002 12.7394 78.087 13.7244C78.0933 14.9171 77.7343 16.0845 77.056 17.0774C76.35 18.1128 75.3457 18.9218 74.1691 19.403C72.9319 19.9316 71.3734 20.1958 69.4937 20.1958C66.193 20.1958 63.9067 19.5771 62.6347 18.3396C61.3628 17.1021 60.6392 15.5271 60.4641 13.6144V13.6144ZM2.05626 19.8787V0.963282H12.0539C13.9076 0.963282 15.3242 1.11762 16.3039 1.42628C17.2689 1.72649 18.1031 2.33222 18.6741 3.14721C19.2956 4.05181 19.612 5.12266 19.5793 6.21064C19.6044 7.16008 19.3644 8.09834 18.8847 8.92523C18.4244 9.69177 17.7725 10.3325 16.9898 10.7878C16.3317 11.1414 15.6215 11.3938 14.8843 11.5362C15.4359 11.6944 15.9615 11.9287 16.445 12.2318C16.8043 12.5227 17.1277 12.8533 17.4087 13.217C17.7248 13.5784 18.0047 13.9685 18.2444 14.3819L21.1486 19.8787H14.3699L11.1661 14.0922C10.7595 13.3438 10.3978 12.8576 10.0809 12.6335C9.64902 12.342 9.13457 12.189 8.60921 12.1958H8.07525V19.8787H2.05626ZM8.07525 8.6229H10.6105C11.147 8.58388 11.6788 8.49755 12.1993 8.36497C12.5883 8.29228 12.9352 8.08034 13.1718 7.77089C13.4219 7.45832 13.5551 7.07202 13.5494 6.67576C13.5658 6.41268 13.5205 6.14943 13.4171 5.90588C13.3137 5.66233 13.1548 5.44484 12.9525 5.26984C12.556 4.94284 11.8101 4.77935 10.7147 4.77935H8.07525V8.6229ZM0.695312 36.0648L6.40174 35.718C6.52619 36.6215 6.77798 37.3093 7.1571 37.7815C7.7692 38.5468 8.65407 38.9295 9.81171 38.9295C10.6669 38.9295 11.3268 38.7335 11.7913 38.3417C12.004 38.1796 12.1768 37.9732 12.297 37.7376C12.4171 37.502 12.4817 37.2432 12.4859 36.9802C12.482 36.7281 12.4218 36.4798 12.3093 36.2527C12.1969 36.0255 12.0349 35.8251 11.8347 35.6652C11.4006 35.279 10.3768 34.914 8.76332 34.57C6.13259 33.9922 4.2565 33.2268 3.13503 32.2741C2.58938 31.8283 2.15369 31.2687 1.86024 30.6366C1.56679 30.0046 1.4231 29.3164 1.43982 28.6229C1.44462 27.6434 1.7467 26.6872 2.30805 25.8745C2.94983 24.9588 3.8564 24.2495 4.91273 23.8364C6.07037 23.3417 7.66212 23.0944 9.68799 23.0944C12.1682 23.0944 14.0595 23.544 15.3619 24.4432C16.6642 25.3424 17.4391 26.7716 17.6865 28.7307L12.0431 29.0542C11.8984 28.2085 11.5829 27.5891 11.0967 27.1958C10.6105 26.8026 9.94556 26.6095 9.10193 26.6166C8.4059 26.6166 7.88135 26.7575 7.52827 27.0394C7.36218 27.1638 7.22793 27.324 7.13604 27.5074C7.04415 27.6908 6.99713 27.8924 6.99865 28.0965C7.0036 28.2552 7.04519 28.4108 7.12035 28.5517C7.1955 28.6926 7.30228 28.8152 7.43276 28.9104C7.71494 29.1599 8.38564 29.3918 9.44488 29.606C12.0669 30.1557 13.9481 30.7124 15.0884 31.2762C16.2286 31.84 17.0535 32.5383 17.5628 33.3713C18.0823 34.2164 18.3506 35.1855 18.3377 36.1705C18.3442 37.3632 17.9852 38.5307 17.3067 39.5235C16.6007 40.5589 15.5964 41.3679 14.4198 41.8491C13.1826 42.3777 11.6241 42.6419 9.74442 42.6419C6.44371 42.6419 4.15737 42.0232 2.88542 40.7857C1.61346 39.5482 0.883429 37.9746 0.695312 36.0648ZM36.0756 34.5827L41.3327 36.1303C41.042 37.4293 40.4732 38.654 39.6636 39.7244C38.9258 40.6702 37.9554 41.4198 36.8418 41.9041C35.716 42.3932 34.2834 42.6377 32.5441 42.6377C30.4343 42.6377 28.7109 42.3396 27.3738 41.7434C26.0367 41.1472 24.8791 40.0965 23.9009 38.5912C22.9285 37.0873 22.443 35.1627 22.4444 32.8174C22.4444 29.6913 23.2982 27.2875 25.0057 25.606C26.7132 23.9245 29.1298 23.0845 32.2554 23.0859C34.7024 23.0859 36.6248 23.5679 38.0226 24.532C39.4205 25.4961 40.4594 26.976 41.1396 28.9717L35.8434 30.1197C35.719 29.6698 35.5227 29.2417 35.2616 28.8512C34.9409 28.4174 34.5191 28.0639 34.0309 27.8195C33.525 27.574 32.966 27.45 32.4008 27.458C31.0421 27.458 30.0009 27.9908 29.2774 29.0563C28.7275 29.847 28.4533 31.088 28.4547 32.7794C28.4547 34.8738 28.7818 36.31 29.4358 37.088C30.0899 37.866 31.0081 38.2543 32.1903 38.2529C33.3364 38.2529 34.2046 37.9393 34.795 37.3121C35.3854 36.6849 35.8123 35.7751 36.0756 34.5827V34.5827ZM45.9539 23.4136H51.9512V30.0267H58.5063V23.4136H64.5296V42.3206H58.5063V34.6779H51.9512V42.3269H45.9539V23.4136ZM68.263 32.8787C68.263 29.7949 69.1457 27.3918 70.9111 25.6694C72.6765 23.9471 75.1365 23.0873 78.291 23.0901C81.5208 23.0901 84.0098 23.9358 85.7578 25.6271C87.5058 27.3185 88.382 29.6842 88.3864 32.7244C88.3864 34.9358 88.0043 36.7483 87.2403 38.162C86.4968 39.5571 85.3447 40.7057 83.9302 41.4622C82.4831 42.2487 80.6845 42.6419 78.5341 42.6419C76.3462 42.6419 74.5374 42.3023 73.1077 41.6229C71.6389 40.9139 70.4234 39.7904 69.6196 38.3988C68.7138 36.9302 68.2616 35.0901 68.263 32.8787V32.8787ZM74.2603 32.9062C74.2603 34.816 74.6221 36.1874 75.3456 37.0204C76.0691 37.8533 77.0603 38.2698 78.3193 38.2698C79.6086 38.2698 80.6063 37.8618 81.3125 37.0457C82.0186 36.2297 82.3717 34.7638 82.3717 32.6483C82.3717 30.8681 82.0027 29.5672 81.2647 28.7455C80.5267 27.9238 79.5268 27.5137 78.265 27.5151C77.7164 27.4959 77.1704 27.5977 76.6678 27.813C76.1653 28.0282 75.7192 28.3514 75.3629 28.7582C74.6293 29.6039 74.2617 30.9865 74.2603 32.9062V32.9062Z" fill="black"/>
<path d="M85.8423 32.8789C85.8423 29.7951 86.725 27.392 88.4904 25.6696C90.2558 23.9473 92.7158 23.0875 95.8703 23.0903C99.103 23.0903 101.593 23.936 103.339 25.6273C105.086 27.3187 105.959 29.6851 105.959 32.7267C105.959 34.9381 105.578 36.7507 104.815 38.1643C104.071 39.5589 102.919 40.7074 101.505 41.4645C100.058 42.251 98.2594 42.6442 96.1091 42.6442C93.9197 42.6442 92.1109 42.3046 90.6827 41.6252C89.2136 40.9157 87.9976 39.7924 87.1924 38.4011C86.2923 36.9311 85.8423 35.0903 85.8423 32.8789V32.8789ZM91.8417 32.9064C91.8417 34.8162 92.2035 36.1876 92.927 37.0206C93.6506 37.8536 94.6432 38.2707 95.9051 38.2722C97.1944 38.2722 98.1921 37.8641 98.8983 37.0481C99.6044 36.232 99.9575 34.7662 99.9575 32.6506C99.9575 30.8705 99.5892 29.5695 98.8527 28.7478C98.1161 27.9261 97.1162 27.516 95.853 27.5174C95.3034 27.4968 94.7562 27.5978 94.2524 27.8127C93.7487 28.0276 93.3015 28.351 92.9444 28.7584C92.2078 29.6041 91.8403 30.9867 91.8417 32.9064V32.9064Z" fill="black"/>
<path d="M105.334 23.4136H111.334V37.6652H120.695V42.3163H105.334V23.4136Z" fill="black"/>
</svg>
